<svg width="55" height="61" viewBox="0 0 55 61" fill="none" xmlns="http://www.w3.org/2000/svg">
<path fill-rule="evenodd" clip-rule="evenodd" d="M15.6571 10.8664L11.4501 12.5661L20.742 35.5644L18.6386 36.4143L22.8879 46.9317L24.9913 46.0819L26.691 50.2887L28.7943 49.4389L30.4374 53.5055L32.5409 52.6557L30.8978 48.589L30.898 48.589L15.6571 10.8664ZM15.7418 35.3008L17.8451 34.451L21.1879 42.7247L19.0844 43.5746L17.3846 39.3675L15.2814 40.2173L12.7885 34.0471L14.8919 33.1972L15.7418 35.3008ZM10.6849 34.8971L12.7884 34.0472L14.4315 38.1139L12.328 38.9638L10.6849 34.8971ZM27.0526 33.0148L24.9491 33.8647L32.5412 52.6559L34.6447 51.806L27.0526 33.0148ZM31.523 26.3147L29.5598 27.1079L26.2171 18.8344L22.0101 20.5341L34.6448 51.806L38.8518 50.1063L38.0584 48.1427L40.0217 47.3496L40.0217 47.3497L42.6862 46.2732L43.4794 48.2364L45.0215 47.6133L47.125 46.7635L38.6263 25.7286L36.5232 26.5783L33.2371 18.4449L29.0302 20.1446L31.523 26.3147ZM38.2938 18.8486L36.1903 19.6984L45.4822 42.6966L47.5856 41.8467L38.2938 18.8486ZM39.1439 20.9522L41.2474 20.1024L47.1398 34.6866L45.0363 35.5364L39.1439 20.9522Z" fill="white"/>
<path fill-rule="evenodd" clip-rule="evenodd" d="M14.864 8.90326L10.657 10.603L11.4502 12.5662L15.6571 10.8666L24.9489 33.8646L27.0524 33.0147L22.0099 20.5341L26.2167 18.8344L29.5594 27.108L31.6629 26.2582L28.3201 17.9844L26.2168 18.8343L25.3669 16.7309L21.16 18.4306L17.7605 10.0166L15.6572 10.8664L14.864 8.90326ZM35.3406 17.5949L33.2371 18.4448L36.5799 26.7185L38.6834 25.8686L35.3406 17.5949ZM9.34649 13.4161L11.45 12.5662L20.7418 35.5644L18.6383 36.4143L17.8451 34.451L15.7418 35.3008L14.8919 33.1974L10.6851 34.897L9.83526 32.7935L14.0422 31.0938L14.8921 33.1973L16.9953 32.3475L9.34649 13.4161ZM41.2474 20.1023L43.3509 19.2524L49.2432 33.8366L47.1398 34.6865L41.2474 20.1023ZM47.1394 34.6865L45.0359 35.5363L47.5855 41.8468L49.689 40.9969L47.1394 34.6865ZM45.4822 42.6967L47.5857 41.8469L50.0787 48.0171L47.9752 48.867L47.9752 48.8669L44.3292 50.34L43.5359 48.3767L38.9084 50.2463L39.7016 52.2096L31.2877 55.6091L30.4378 53.5056L38.8516 50.1062L38.0584 48.1429L42.6861 46.2732L43.4793 48.2365L47.1253 46.7635L45.4822 42.6967ZM25.7986 35.9681L23.6951 36.818L26.1881 42.9882L28.2915 42.1383L25.7986 35.9681ZM29.4446 34.4951L31.5481 33.6452L34.0411 39.8155L31.9376 40.6653L29.4446 34.4951ZM37.2976 31.3222L35.1941 32.1721L37.6871 38.3423L39.7906 37.4925L37.2976 31.3222ZM26.6907 50.2888L28.7942 49.4389L31.2871 55.6092L29.1837 56.459L26.6907 50.2888ZM24.991 46.0819L22.8879 46.9316L21.1883 42.7247L19.0848 43.5746L20.7845 47.7815L22.8875 46.9318L24.5872 51.1387L26.6907 50.2888L24.991 46.0819ZM17.385 39.3676L15.2815 40.2175L16.9813 44.4245L19.0848 43.5746L17.385 39.3676ZM12.3279 38.964L14.4314 38.1141L15.2813 40.2176L13.1778 41.0674L12.3279 38.964ZM9.83523 32.7935L7.73174 33.6434L10.2247 39.8136L12.3282 38.9638L9.83523 32.7935ZM32.3869 16.3414L28.3201 17.9845L29.17 20.088L33.2367 18.4449L32.3869 16.3414ZM35.3406 17.5949L37.4441 16.7451L38.294 18.8486L36.1905 19.6984L35.3406 17.5949ZM40.3972 17.9989L38.2938 18.8487L39.1436 20.9522L41.2471 20.1023L40.3972 17.9989Z" fill="#161616"/>
</svg>
