<svg width="65" height="63" viewBox="0 0 65 63" fill="none" xmlns="http://www.w3.org/2000/svg">
<circle cx="33" cy="23" r="9" stroke="#1355FF" stroke-width="2"/>
<path d="M28.1014 56.5324L31.8346 36H34.1654L37.8986 56.5324L33 59.7981L28.1014 56.5324Z" stroke="#1355FF" stroke-width="2"/>
<circle cx="50" cy="62" r="1" fill="#1355FF"/>
<circle cx="16" cy="62" r="1" fill="#1355FF"/>
<path fill-rule="evenodd" clip-rule="evenodd" d="M7.55555 25.2727H6.64166L6.04348 25.9637L2 30.6342V27.2727V26.1818V8.00001C2 4.6863 4.68629 2 8 2H57C60.3137 2 63 4.68629 63 8V19.2727C63 22.5864 60.3137 25.2727 57 25.2727H47V27.2727H57C61.4183 27.2727 65 23.691 65 19.2727V8C65 3.58172 61.4183 0 57 0H8C3.58172 0 0 3.58173 0 8.00001V26.1818V27.2727V32.9444V36L2 33.6898L7.55555 27.2727H19V25.2727H7.55555Z" fill="#1355FF"/>
<circle cx="19" cy="26.27" r="1" fill="#1355FF"/>
<circle cx="47" cy="26.27" r="1" fill="#1355FF"/>
<path fill-rule="evenodd" clip-rule="evenodd" d="M43 36H23C19.6863 36 17 38.6863 17 42V59V60V62H15V60V42C15 37.5817 18.5817 34 23 34H43C47.4183 34 51 37.5817 51 42V60V62H49V60V59V42C49 38.6863 46.3137 36 43 36Z" fill="#1355FF"/>
</svg>
