<svg width="72" height="55" viewBox="0 0 72 55" fill="none" xmlns="http://www.w3.org/2000/svg">
<rect x="1" y="1" width="70" height="53" rx="7" stroke="#FFB31F" stroke-width="2"/>
<path d="M11 34V5.68H12.44V34H11ZM18.2 34V5.68H19.64V34H18.2ZM21.08 34V5.68H22.52V34H21.08ZM28.28 34V5.68H29.72V34H28.28ZM35.48 34V5.68H36.92V34H35.48ZM38.36 34V5.68H42.68V34H38.36ZM44.12 34V5.68H45.56V34H44.12ZM47 34V5.68H51.32V34H47ZM57.08 34V5.68H58.52V34H57.08ZM59.96 34V5.68H61.4V34H59.96ZM37.304 49.504C36.088 49.504 35.128 49.136 34.424 48.4C33.688 47.664 33.32 46.624 33.32 45.28C33.32 44.384 33.496 43.6 33.848 42.928C34.168 42.288 34.616 41.808 35.192 41.488C35.736 41.136 36.36 40.96 37.064 40.96C38.056 40.96 38.856 41.28 39.464 41.92C40.072 42.592 40.376 43.568 40.376 44.848C40.376 44.976 40.376 45.168 40.376 45.424H34.568C34.6 46.416 34.872 47.168 35.384 47.68C35.896 48.192 36.552 48.448 37.352 48.448C38.216 48.448 38.92 48.144 39.464 47.536L40.184 48.256C39.48 49.088 38.52 49.504 37.304 49.504ZM39.08 44.416C39.08 43.648 38.888 43.04 38.504 42.592C38.12 42.144 37.608 41.92 36.968 41.92C36.392 41.92 35.88 42.128 35.432 42.544C34.984 42.96 34.712 43.584 34.616 44.416H39.08Z" fill="#FFB31F"/>
</svg>
