<svg width="76" height="76" viewBox="0 0 76 76" fill="none" xmlns="http://www.w3.org/2000/svg">
<path d="M8.63333 72.9646L1.1798 41.7529C1.06412 41.2685 1.13335 40.7583 1.37395 40.3222L9 26.5L10.5069 23.6369C11.408 21.9248 14 22.5653 14 24.5V30V38V41.6518C14 43.1691 14.532 44.6383 15.5033 45.804C16.1585 46.5902 16.9904 47.2102 17.931 47.6133L18.6324 47.9139C19.5347 48.3006 20.5062 48.5 21.4879 48.5H21.6971C24.1108 48.5 26.404 47.4453 27.9749 45.6126L28.5 45L31 41.5L34.0875 36.8687C35.1089 35.3366 37.4821 35.8749 37.7425 37.6977C37.911 38.8772 37.7567 40.0802 37.2959 41.1789L33.9225 49.2232C32.3136 53.06 31.1801 57.0792 30.5475 61.1913L30 64.75L28.7609 72.8041C28.6108 73.7798 27.7713 74.5 26.7842 74.5H10.5786C9.65301 74.5 8.84832 73.8649 8.63333 72.9646Z" stroke="#1355FF" stroke-width="2"/>
<path fill-rule="evenodd" clip-rule="evenodd" d="M35 17C41.0751 17 46 12.0751 46 6C46 4.59037 45.734 3.24065 45.2495 2H52C55.3137 2 58 4.68629 58 8V17.9299C58 19.1572 58.8297 19.9712 59.6273 20.2824C60.4098 20.5876 61.4834 20.5497 62.311 19.8025C63.5535 18.6806 65.1949 18 67 18C70.866 18 74 21.134 74 25C74 28.866 70.866 32 67 32C65.1949 32 63.5535 31.3194 62.311 30.1975C61.4834 29.4503 60.4098 29.4124 59.6273 29.7176C58.8297 30.0288 58 30.8428 58 32.0701V42C58 45.3137 55.3137 48 52 48H39V50H52C56.4183 50 60 46.4183 60 42V33.4856V33.4108V32.7569V32.0701C60 31.5988 60.6209 31.3661 60.9706 31.6819C61.1195 31.8163 61.2728 31.9458 61.4304 32.0701C61.5996 32.2036 61.7738 32.3312 61.9525 32.4525L62 32.4845C63.4301 33.4417 65.1499 34 67 34C71.9706 34 76 29.9706 76 25C76 20.0294 71.9706 16 67 16C65.1499 16 63.4301 16.5583 62 17.5155L61.9525 17.5475C61.7738 17.6688 61.5996 17.7964 61.4304 17.9299C61.2728 18.0542 61.1195 18.1837 60.9706 18.3181C60.6209 18.6339 60 18.4012 60 17.9299V17.2431V16.5892V16.5144V8C60 3.58172 56.4183 0 52 0H44.2208H44.1894H43.6662H42.8269C42.3946 0 42.1546 0.522215 42.4009 0.877401C42.5525 1.09603 42.6947 1.32171 42.8269 1.55383C42.907 1.69456 42.9834 1.83766 43.056 1.983L43.0645 2C43.6633 3.20496 44 4.56316 44 6C44 10.9706 39.9706 15 35 15C30.0294 15 26 10.9706 26 6C26 4.56316 26.3367 3.20496 26.9355 2L26.944 1.983C27.0166 1.83766 27.093 1.69456 27.1732 1.55383C27.3053 1.3217 27.4475 1.09603 27.5991 0.877402C27.8454 0.522216 27.6054 0 27.1732 0H26.3338H25.8106H25.7792H18C13.5817 0 10 3.58172 10 8V18H12V8C12 4.68629 14.6863 2 18 2H24.7505C24.266 3.24065 24 4.59037 24 6C24 12.0751 28.9249 17 35 17Z" fill="#1355FF"/>
<circle cx="11" cy="18" r="1" fill="#1355FF"/>
<circle cx="39" cy="49" r="1" fill="#1355FF"/>
</svg>
