<svg width="232" height="232" viewBox="0 0 232 232" fill="none" xmlns="http://www.w3.org/2000/svg">
<circle cx="4" cy="4" r="4" fill="#C7D6FF"/>
<circle cx="4" cy="68" r="4" fill="#C7D6FF"/>
<circle cx="4" cy="132" r="4" fill="#C7D6FF"/>
<circle cx="4" cy="196" r="4" fill="#C7D6FF"/>
<circle cx="68" cy="4" r="4" fill="#C7D6FF"/>
<circle cx="68" cy="68" r="4" fill="#C7D6FF"/>
<circle cx="68" cy="132" r="4" fill="#C7D6FF"/>
<circle cx="68" cy="196" r="4" fill="#C7D6FF"/>
<circle cx="132" cy="4" r="4" fill="#C7D6FF"/>
<circle cx="132" cy="68" r="4" fill="#C7D6FF"/>
<circle cx="132" cy="132" r="4" fill="#C7D6FF"/>
<circle cx="132" cy="196" r="4" fill="#C7D6FF"/>
<circle cx="196" cy="4" r="4" fill="#C7D6FF"/>
<circle cx="196" cy="68" r="4" fill="#C7D6FF"/>
<circle cx="196" cy="132" r="4" fill="#C7D6FF"/>
<circle cx="196" cy="196" r="4" fill="#C7D6FF"/>
<circle cx="4" cy="36" r="4" fill="#C7D6FF"/>
<circle cx="4" cy="100" r="4" fill="#C7D6FF"/>
<circle cx="4" cy="164" r="4" fill="#C7D6FF"/>
<circle cx="4" cy="228" r="4" fill="#C7D6FF"/>
<circle cx="68" cy="36" r="4" fill="#C7D6FF"/>
<circle cx="68" cy="100" r="4" fill="#C7D6FF"/>
<circle cx="68" cy="164" r="4" fill="#C7D6FF"/>
<circle cx="68" cy="228" r="4" fill="#C7D6FF"/>
<circle cx="132" cy="36" r="4" fill="#C7D6FF"/>
<circle cx="132" cy="100" r="4" fill="#C7D6FF"/>
<circle cx="132" cy="164" r="4" fill="#C7D6FF"/>
<circle cx="132" cy="228" r="4" fill="#C7D6FF"/>
<circle cx="196" cy="36" r="4" fill="#C7D6FF"/>
<circle cx="196" cy="100" r="4" fill="#C7D6FF"/>
<circle cx="196" cy="164" r="4" fill="#C7D6FF"/>
<circle cx="196" cy="228" r="4" fill="#C7D6FF"/>
<circle cx="36" cy="36" r="4" fill="#C7D6FF"/>
<circle cx="36" cy="100" r="4" fill="#C7D6FF"/>
<circle cx="36" cy="164" r="4" fill="#C7D6FF"/>
<circle cx="36" cy="228" r="4" fill="#C7D6FF"/>
<circle cx="100" cy="36" r="4" fill="#C7D6FF"/>
<circle cx="100" cy="100" r="4" fill="#C7D6FF"/>
<circle cx="100" cy="164" r="4" fill="#C7D6FF"/>
<circle cx="100" cy="228" r="4" fill="#C7D6FF"/>
<circle cx="164" cy="36" r="4" fill="#C7D6FF"/>
<circle cx="164" cy="100" r="4" fill="#C7D6FF"/>
<circle cx="164" cy="164" r="4" fill="#C7D6FF"/>
<circle cx="164" cy="228" r="4" fill="#C7D6FF"/>
<circle cx="228" cy="36" r="4" fill="#C7D6FF"/>
<circle cx="228" cy="100" r="4" fill="#C7D6FF"/>
<circle cx="228" cy="164" r="4" fill="#C7D6FF"/>
<circle cx="228" cy="228" r="4" fill="#C7D6FF"/>
<circle cx="36" cy="4" r="4" fill="#C7D6FF"/>
<circle cx="36" cy="68" r="4" fill="#C7D6FF"/>
<circle cx="36" cy="132" r="4" fill="#C7D6FF"/>
<circle cx="36" cy="196" r="4" fill="#C7D6FF"/>
<circle cx="100" cy="4" r="4" fill="#C7D6FF"/>
<circle cx="100" cy="68" r="4" fill="#C7D6FF"/>
<circle cx="100" cy="132" r="4" fill="#C7D6FF"/>
<circle cx="100" cy="196" r="4" fill="#C7D6FF"/>
<circle cx="164" cy="4" r="4" fill="#C7D6FF"/>
<circle cx="164" cy="68" r="4" fill="#C7D6FF"/>
<circle cx="164" cy="132" r="4" fill="#C7D6FF"/>
<circle cx="164" cy="196" r="4" fill="#C7D6FF"/>
<circle cx="228" cy="4" r="4" fill="#C7D6FF"/>
<circle cx="228" cy="68" r="4" fill="#C7D6FF"/>
<circle cx="228" cy="132" r="4" fill="#C7D6FF"/>
<circle cx="228" cy="196" r="4" fill="#C7D6FF"/>
</svg>
