<svg width="1440" height="301" viewBox="0 0 1440 301" fill="none" xmlns="http://www.w3.org/2000/svg">
<g filter="url(#filter0_i)">
<path fill-rule="evenodd" clip-rule="evenodd" d="M1458 0H-18V301H-17.9999V175.883H8.77507C11.5365 175.883 13.7751 173.645 13.7751 170.883V162.161C13.7751 159.4 16.0136 157.161 18.7751 157.161H31.8376C34.599 157.161 36.8376 159.4 36.8376 162.161V170.883C36.8376 173.645 39.0761 175.883 41.8376 175.883H80.0126C82.774 175.883 85.0126 173.645 85.0126 170.883V166.714C85.0126 163.953 87.2511 161.714 90.0126 161.714H97.9501C100.711 161.714 102.95 159.476 102.95 156.714V143.865C102.95 141.103 105.189 138.865 107.95 138.865H155.35C158.111 138.865 160.35 141.103 160.35 143.865V170.883C160.35 173.645 162.589 175.883 165.35 175.883H186.1C188.861 175.883 191.1 178.122 191.1 180.883V210.454C191.1 213.216 193.339 215.454 196.1 215.454H214.8C217.561 215.454 219.8 213.216 219.8 210.454V162.161C219.8 159.4 222.039 157.161 224.8 157.161H250.675C253.436 157.161 255.675 159.4 255.675 162.161V190.882C255.675 193.643 257.914 195.882 260.675 195.882H287.575C290.336 195.882 292.575 193.643 292.575 190.882V180.883C292.575 178.122 294.814 175.883 297.575 175.883H341.9C344.661 175.883 346.9 173.645 346.9 170.883V149.822C346.9 147.06 349.139 144.822 351.9 144.822H370.088C372.849 144.822 375.088 142.583 375.088 139.822V94.6128V56.2632C375.088 53.5017 377.326 51.2631 380.088 51.2631H392.125C394.886 51.2631 397.125 53.5017 397.125 56.2631V89.6128C397.125 92.3743 399.364 94.6128 402.125 94.6128H439.275C442.036 94.6128 444.275 96.8514 444.275 99.6128V109.611C444.275 112.373 446.514 114.611 449.275 114.611H470.538C473.299 114.611 475.538 116.85 475.538 119.611V139.822C475.538 142.583 477.776 144.822 480.538 144.822H494.113C496.874 144.822 499.113 147.06 499.113 149.822V155.885V170.883C499.113 173.645 501.351 175.883 504.113 175.883H593.025C595.786 175.883 598.025 178.122 598.025 180.883V184.074C598.025 186.835 600.264 189.074 603.025 189.074H628.388C631.149 189.074 633.388 191.312 633.388 194.074V195.988C633.388 198.749 635.626 200.988 638.388 200.988H725.763C728.524 200.988 730.763 198.749 730.763 195.988V157.055C730.763 154.294 733.001 152.055 735.763 152.055H771.375C774.136 152.055 776.375 149.817 776.375 147.055V131.1C776.375 128.338 778.614 126.1 781.375 126.1H800.075C802.836 126.1 805.075 128.338 805.075 131.1V186.095V202.795C805.075 205.557 807.314 207.795 810.075 207.795H828.138H845.175C847.936 207.795 850.175 210.034 850.175 212.795V225.772C850.175 228.534 852.414 230.772 855.175 230.772H920.513C923.274 230.772 925.513 228.534 925.513 225.772V188.542C925.513 185.781 927.751 183.542 930.513 183.542H988.675C991.436 183.542 993.675 181.304 993.675 178.542V161.736C993.675 158.974 995.914 156.736 998.675 156.736H1056.84C1059.6 156.736 1061.84 154.497 1061.84 151.736V46C1061.84 43.2386 1064.08 41 1066.84 41H1086.56C1089.32 41 1091.56 43.2386 1091.56 46V170.883C1091.56 173.645 1093.8 175.883 1096.56 175.883H1156.26C1159.02 175.883 1161.26 173.645 1161.26 170.883V136.631C1161.26 133.87 1163.5 131.631 1166.26 131.631H1221.35C1224.11 131.631 1226.35 129.393 1226.35 126.631V99.0217C1226.35 96.2603 1228.59 94.0217 1231.35 94.0217H1237.24C1240 94.0217 1242.24 96.2603 1242.24 99.0217V131.631V144.928C1242.24 147.689 1244.48 149.928 1247.24 149.928H1273.11C1275.87 149.928 1278.11 152.166 1278.11 154.928V167.905C1278.11 170.666 1280.35 172.905 1283.11 172.905H1301.81C1304.57 172.905 1306.81 175.143 1306.81 177.905V181.521C1306.81 184.282 1309.05 186.521 1311.81 186.521H1367.41C1370.17 186.521 1372.41 184.282 1372.41 181.521V168.544C1372.41 165.782 1374.65 163.544 1377.41 163.544H1409.95C1412.71 163.544 1414.95 165.782 1414.95 168.544V170.883C1414.95 173.645 1417.19 175.883 1419.95 175.883H1458L1458 0Z" fill="#F9F9F9"/>
</g>
<defs>
<filter id="filter0_i" x="-18" y="-16" width="1476" height="317" filterUnits="userSpaceOnUse" color-interpolation-filters="sRGB">
<feFlood flood-opacity="0" result="BackgroundImageFix"/>
<feBlend mode="normal" in="SourceGraphic" in2="BackgroundImageFix" result="shape"/>
<feColorMatrix in="SourceAlpha" type="matrix" values="0 0 0 0 0 0 0 0 0 0 0 0 0 0 0 0 0 0 127 0" result="hardAlpha"/>
<feOffset dy="-16"/>
<feGaussianBlur stdDeviation="8"/>
<feComposite in2="hardAlpha" operator="arithmetic" k2="-1" k3="1"/>
<feColorMatrix type="matrix" values="0 0 0 0 0 0 0 0 0 0 0 0 0 0 0 0 0 0 0.25 0"/>
<feBlend mode="normal" in2="shape" result="effect1_innerShadow"/>
</filter>
</defs>
</svg>
