<svg width="1440" height="260" viewBox="0 0 1440 260" fill="none" xmlns="http://www.w3.org/2000/svg">
<g filter="url(#filter0_i)">
<path d="M-17.9999 260H1458V134.883H1419.95C1417.19 134.883 1414.95 132.645 1414.95 129.883V127.544C1414.95 124.782 1412.71 122.544 1409.95 122.544H1377.41C1374.65 122.544 1372.41 124.782 1372.41 127.544V140.521C1372.41 143.282 1370.17 145.521 1367.41 145.521H1311.81C1309.05 145.521 1306.81 143.282 1306.81 140.521V136.905C1306.81 134.143 1304.57 131.905 1301.81 131.905H1283.11C1280.35 131.905 1278.11 129.666 1278.11 126.905V113.928C1278.11 111.166 1275.87 108.928 1273.11 108.928H1247.24C1244.48 108.928 1242.24 106.689 1242.24 103.928V90.6312V58.0217C1242.24 55.2603 1240 53.0217 1237.24 53.0217H1231.35C1228.59 53.0217 1226.35 55.2603 1226.35 58.0217V85.6312C1226.35 88.3926 1224.11 90.6312 1221.35 90.6312H1166.26C1163.5 90.6312 1161.26 92.8698 1161.26 95.6312V129.883C1161.26 132.645 1159.02 134.883 1156.26 134.883H1096.56C1093.8 134.883 1091.56 132.645 1091.56 129.883V4.99999C1091.56 2.23856 1089.32 -7.03335e-06 1086.56 -7.03335e-06H1066.84C1064.08 -7.03335e-06 1061.84 2.23857 1061.84 4.99999V110.736C1061.84 113.497 1059.6 115.736 1056.84 115.736H998.675C995.914 115.736 993.675 117.974 993.675 120.736V137.542C993.675 140.304 991.436 142.542 988.675 142.542H930.513C927.751 142.542 925.513 144.781 925.513 147.542V184.772C925.513 187.534 923.274 189.772 920.513 189.772H855.175C852.414 189.772 850.175 187.534 850.175 184.772V171.795C850.175 169.034 847.936 166.795 845.175 166.795H828.138H810.075C807.314 166.795 805.075 164.557 805.075 161.795V145.095V90.0997C805.075 87.3383 802.836 85.0998 800.075 85.0998H781.375C778.614 85.0998 776.375 87.3383 776.375 90.0998V106.055C776.375 108.817 774.136 111.055 771.375 111.055H735.763C733.001 111.055 730.763 113.294 730.763 116.055V154.988C730.763 157.749 728.524 159.988 725.763 159.988H638.388C635.626 159.988 633.388 157.749 633.388 154.988V153.074C633.388 150.312 631.149 148.074 628.388 148.074H603.025C600.264 148.074 598.025 145.835 598.025 143.074V139.883C598.025 137.122 595.786 134.883 593.025 134.883H504.113C501.351 134.883 499.113 132.645 499.113 129.883V114.885V108.822C499.113 106.06 496.874 103.822 494.113 103.822H480.538C477.776 103.822 475.538 101.583 475.538 98.8217V78.6113C475.538 75.8499 473.299 73.6113 470.538 73.6113H449.275C446.514 73.6113 444.275 71.3727 444.275 68.6113V58.6128C444.275 55.8514 442.036 53.6128 439.275 53.6128H402.125C399.364 53.6128 397.125 51.3743 397.125 48.6128V15.2631C397.125 12.5017 394.886 10.2632 392.125 10.2632H380.088C377.326 10.2632 375.088 12.5017 375.088 15.2632V53.6128V98.8217C375.088 101.583 372.849 103.822 370.088 103.822H351.9C349.139 103.822 346.9 106.06 346.9 108.822V129.883C346.9 132.645 344.661 134.883 341.9 134.883H297.575C294.814 134.883 292.575 137.122 292.575 139.883V149.882C292.575 152.643 290.336 154.882 287.575 154.882H260.675C257.914 154.882 255.675 152.643 255.675 149.882V121.161C255.675 118.4 253.436 116.161 250.675 116.161H224.8C222.039 116.161 219.8 118.4 219.8 121.161V169.454C219.8 172.216 217.561 174.454 214.8 174.454H196.1C193.339 174.454 191.1 172.216 191.1 169.454V139.883C191.1 137.122 188.861 134.883 186.1 134.883H165.35C162.589 134.883 160.35 132.645 160.35 129.883V102.865C160.35 100.103 158.111 97.8647 155.35 97.8647H107.95C105.189 97.8647 102.95 100.103 102.95 102.865V115.714C102.95 118.476 100.711 120.714 97.9501 120.714H90.0126C87.2511 120.714 85.0126 122.953 85.0126 125.714V129.883C85.0126 132.645 82.774 134.883 80.0126 134.883H41.8376C39.0761 134.883 36.8376 132.645 36.8376 129.883V121.161C36.8376 118.4 34.599 116.161 31.8376 116.161H18.7751C16.0136 116.161 13.7751 118.4 13.7751 121.161V129.883C13.7751 132.645 11.5365 134.883 8.77507 134.883H-17.9999V260Z" fill="#F9F9F9"/>
</g>
<defs>
<filter id="filter0_i" x="-18" y="0" width="1476" height="276" filterUnits="userSpaceOnUse" color-interpolation-filters="sRGB">
<feFlood flood-opacity="0" result="BackgroundImageFix"/>
<feBlend mode="normal" in="SourceGraphic" in2="BackgroundImageFix" result="shape"/>
<feColorMatrix in="SourceAlpha" type="matrix" values="0 0 0 0 0 0 0 0 0 0 0 0 0 0 0 0 0 0 127 0" result="hardAlpha"/>
<feOffset dy="16"/>
<feGaussianBlur stdDeviation="10"/>
<feComposite in2="hardAlpha" operator="arithmetic" k2="-1" k3="1"/>
<feColorMatrix type="matrix" values="0 0 0 0 0 0 0 0 0 0 0 0 0 0 0 0 0 0 0.25 0"/>
<feBlend mode="normal" in2="shape" result="effect1_innerShadow"/>
</filter>
</defs>
</svg>
