<svg width="21" height="19" viewBox="0 0 21 19" fill="none" xmlns="http://www.w3.org/2000/svg">
<path d="M4.31559 3.36931C4.86848 2.63152 5.61452 2.04825 6.51245 1.66234L9.25682 4.88208C9.13173 5.05283 9.00784 5.23995 8.89471 5.41759C8.75772 5.63272 8.62514 5.8521 8.51493 6.03445C8.50269 6.0547 8.49073 6.0745 8.47906 6.09378C8.41945 6.19234 8.3689 6.2755 8.32685 6.34261C8.30599 6.37589 8.28891 6.40251 8.27523 6.42317C8.2734 6.42595 8.27167 6.42855 8.27005 6.43097C8.26571 6.43745 8.26212 6.4427 8.25924 6.44685C8.25557 6.45214 8.25384 6.45447 8.25384 6.45447L8.25391 6.45438C7.91481 6.90688 7.73481 7.44959 7.712 8.01641C7.6893 8.5805 7.82225 9.14846 8.07564 9.66994C8.32915 10.1917 8.70054 10.6623 9.1513 11.0445C9.6021 11.4267 10.1277 11.7168 10.6848 11.8839C11.2416 12.0508 11.8248 12.0931 12.3797 11.9852C12.937 11.8768 13.4481 11.6195 13.8469 11.2191C13.8676 11.1983 13.9148 11.153 13.9792 11.0911C14.157 10.9202 14.4663 10.6231 14.7133 10.3669C14.8332 10.2425 14.957 10.1095 15.0718 9.97665L18.9109 12.1917C18.6627 13.1151 18.199 13.9239 17.5533 14.5722C16.7779 15.3507 15.745 15.8924 14.533 16.1281C13.3186 16.3643 11.9652 16.2847 10.5994 15.8751C9.2338 15.4656 7.91372 14.7433 6.76856 13.7723C5.62337 12.8012 4.70079 11.6218 4.0835 10.3514C3.46608 9.08069 3.17989 7.77296 3.22896 6.55351C3.27792 5.33678 3.65826 4.24644 4.31559 3.36931Z" stroke="white" stroke-width="1.7"/>
</svg>
