<svg width="22" height="14" viewBox="0 0 22 14"  fill="white" xmlns="http://www.w3.org/2000/svg">
<path fill-rule="evenodd" clip-rule="evenodd" d="M19.9784 1.3H2.05526L11.0168 5.82722L19.9784 1.3ZM20.7 2.38224L11.6085 6.97509C11.4243 7.06813 11.2188 7.10243 11.0177 7.08485C10.8161 7.10271 10.61 7.06847 10.4254 6.97522L1.3 2.36523V12C1.3 12.3866 1.6134 12.7 2 12.7H20C20.3866 12.7 20.7 12.3866 20.7 12V2.38224ZM2 0C0.895431 0 0 0.89543 0 2V12C0 13.1046 0.89543 14 2 14H20C21.1046 14 22 13.1046 22 12V2C22 0.895431 21.1046 0 20 0H2Z"/>
</svg>
