<svg width="23" height="23" viewBox="0 0 23 23" fill="none" xmlns="http://www.w3.org/2000/svg">
<path d="M6.4966 3.11075C7.26327 2.32868 8.25403 1.78742 9.39816 1.53458L12.1462 5.75672C12.1232 5.77772 12.1005 5.79907 12.0782 5.82057C11.8954 5.99655 11.6996 6.21877 11.5183 6.4352C11.3538 6.63152 11.1931 6.83297 11.0571 7.0035C11.042 7.02234 11.0273 7.0408 11.0129 7.05883C10.858 7.25294 10.7592 7.37427 10.7138 7.4206C10.3634 7.77801 10.1424 8.23876 10.0599 8.74751C9.97768 9.25445 10.0351 9.79217 10.2119 10.3102C10.3888 10.8286 10.6822 11.319 11.0618 11.7393C11.4414 12.1598 11.9004 12.5027 12.3997 12.7342C12.8987 12.9657 13.43 13.082 13.9455 13.0586C14.4626 13.0351 14.9484 12.8711 15.3464 12.5678C15.3802 12.542 15.4448 12.495 15.529 12.4338C15.7346 12.2844 16.0573 12.0499 16.3369 11.8292C16.5435 11.6662 16.7546 11.4899 16.9253 11.3232C16.9364 11.3124 16.9475 11.3014 16.9585 11.2904L21.1218 14.5286C20.7388 15.6148 20.0863 16.5208 19.2177 17.1829C18.2642 17.9097 17.0658 18.3305 15.7238 18.3914C14.3803 18.4525 12.9384 18.1503 11.535 17.4993C10.1319 16.8486 8.82142 15.8741 7.73024 14.6657C6.63905 13.4572 5.80845 12.0604 5.31344 10.61C4.81833 9.15933 4.67787 7.71121 4.89035 6.40114C5.10254 5.0929 5.65922 3.96495 6.4966 3.11075Z" stroke="white"/>
</svg>
